<svg xmlns="http://www.w3.org/2000/svg" width="303" height="820" viewBox="0 0 303 820">
    <defs>
        <linearGradient id="4p22vxxb4a" x1="228.219%" x2="10.631%" y1="617.572%" y2="-62.234%">
            <stop offset="0%" stop-color="#80ADFF"/>
            <stop offset="46.192%" stop-color="#98BEFF"/>
            <stop offset="100%" stop-color="#A9CBFF"/>
        </linearGradient>
        <linearGradient id="x445eyyalb" x1="58.721%" x2="48.073%" y1="617.572%" y2="-62.234%">
            <stop offset="0%" stop-color="#80ADFF"/>
            <stop offset="46.192%" stop-color="#98BEFF"/>
            <stop offset="100%" stop-color="#A9CBFF"/>
        </linearGradient>
        <linearGradient id="b0nk3r8cmc" x1="599.236%" x2="-71.327%" y1="617.572%" y2="-62.234%">
            <stop offset="0%" stop-color="#80ADFF"/>
            <stop offset="46.192%" stop-color="#98BEFF"/>
            <stop offset="100%" stop-color="#A9CBFF"/>
        </linearGradient>
        <linearGradient id="vxy7rpt7yd" x1="228.276%" x2="10.619%" y1="617.572%" y2="-62.234%">
            <stop offset="0%" stop-color="#80ADFF"/>
            <stop offset="46.192%" stop-color="#98BEFF"/>
            <stop offset="100%" stop-color="#A9CBFF"/>
        </linearGradient>
        <linearGradient id="ciuvmesgde" x1="599.612%" x2="-71.41%" y1="617.572%" y2="-62.234%">
            <stop offset="0%" stop-color="#80ADFF"/>
            <stop offset="46.192%" stop-color="#98BEFF"/>
            <stop offset="100%" stop-color="#A9CBFF"/>
        </linearGradient>
        <linearGradient id="51dpneaibf" x1="58.717%" x2="48.075%" y1="617.572%" y2="-62.234%">
            <stop offset="0%" stop-color="#80ADFF"/>
            <stop offset="46.192%" stop-color="#98BEFF"/>
            <stop offset="100%" stop-color="#A9CBFF"/>
        </linearGradient>
        <linearGradient id="h3koel0ohg" x1="599.411%" x2="-71.365%" y1="617.572%" y2="-62.234%">
            <stop offset="0%" stop-color="#80ADFF"/>
            <stop offset="46.192%" stop-color="#98BEFF"/>
            <stop offset="100%" stop-color="#A9CBFF"/>
        </linearGradient>
        <linearGradient id="fp12k8gbbh" x1="780.779%" x2="-111.429%" y1="414.834%" y2="-22.144%">
            <stop offset="0%" stop-color="#80ADFF"/>
            <stop offset="46.192%" stop-color="#98BEFF"/>
            <stop offset="100%" stop-color="#A9CBFF"/>
        </linearGradient>
        <linearGradient id="8hnh0hauji" x1="780.779%" x2="-111.429%" y1="168.453%" y2="26.577%">
            <stop offset="0%" stop-color="#80ADFF"/>
            <stop offset="46.192%" stop-color="#98BEFF"/>
            <stop offset="100%" stop-color="#A9CBFF"/>
        </linearGradient>
        <linearGradient id="81z9r6i6wj" x1="55.67%" x2="48.748%" y1="617.572%" y2="-62.234%">
            <stop offset="0%" stop-color="#80ADFF"/>
            <stop offset="46.192%" stop-color="#98BEFF"/>
            <stop offset="100%" stop-color="#A9CBFF"/>
        </linearGradient>
        <linearGradient id="8rpujgf4kk" x1="599.506%" x2="-71.386%" y1="617.572%" y2="-62.234%">
            <stop offset="0%" stop-color="#80ADFF"/>
            <stop offset="46.192%" stop-color="#98BEFF"/>
            <stop offset="100%" stop-color="#A9CBFF"/>
        </linearGradient>
        <linearGradient id="4y0sg4miyl" x1="214.802%" x2="13.595%" y1="617.572%" y2="-62.234%">
            <stop offset="0%" stop-color="#80ADFF"/>
            <stop offset="46.192%" stop-color="#98BEFF"/>
            <stop offset="100%" stop-color="#A9CBFF"/>
        </linearGradient>
        <linearGradient id="9thsky3uxm" x1="599.242%" x2="-71.328%" y1="617.572%" y2="-62.234%">
            <stop offset="0%" stop-color="#80ADFF"/>
            <stop offset="46.192%" stop-color="#98BEFF"/>
            <stop offset="100%" stop-color="#A9CBFF"/>
        </linearGradient>
        <linearGradient id="xz5fms1t7n" x1="57.974%" x2="48.238%" y1="617.572%" y2="-62.234%">
            <stop offset="0%" stop-color="#80ADFF"/>
            <stop offset="46.192%" stop-color="#98BEFF"/>
            <stop offset="100%" stop-color="#A9CBFF"/>
        </linearGradient>
        <linearGradient id="f46nfactno" x1="780.779%" x2="-111.429%" y1="410.866%" y2="-21.359%">
            <stop offset="0%" stop-color="#80ADFF"/>
            <stop offset="46.192%" stop-color="#98BEFF"/>
            <stop offset="100%" stop-color="#A9CBFF"/>
        </linearGradient>
        <linearGradient id="6rt84bn4hp" x1="780.779%" x2="-111.429%" y1="410.966%" y2="-21.379%">
            <stop offset="0%" stop-color="#80ADFF"/>
            <stop offset="46.192%" stop-color="#98BEFF"/>
            <stop offset="100%" stop-color="#A9CBFF"/>
        </linearGradient>
        <linearGradient id="x6jon2ongq" x1="780.779%" x2="-111.429%" y1="616.763%" y2="-62.074%">
            <stop offset="0%" stop-color="#80ADFF"/>
            <stop offset="46.192%" stop-color="#98BEFF"/>
            <stop offset="100%" stop-color="#A9CBFF"/>
        </linearGradient>
        <linearGradient id="yd161j6ccr" x1="780.779%" x2="-111.429%" y1="616.764%" y2="-62.074%">
            <stop offset="0%" stop-color="#80ADFF"/>
            <stop offset="46.192%" stop-color="#98BEFF"/>
            <stop offset="100%" stop-color="#A9CBFF"/>
        </linearGradient>
        <linearGradient id="1mx5cb1f4s" x1="780.779%" x2="-111.429%" y1="616.764%" y2="-62.074%">
            <stop offset="0%" stop-color="#80ADFF"/>
            <stop offset="46.192%" stop-color="#98BEFF"/>
            <stop offset="100%" stop-color="#A9CBFF"/>
        </linearGradient>
        <linearGradient id="q7tsh24gxt" x1="780.779%" x2="-111.429%" y1="616.763%" y2="-62.074%">
            <stop offset="0%" stop-color="#80ADFF"/>
            <stop offset="46.192%" stop-color="#98BEFF"/>
            <stop offset="100%" stop-color="#A9CBFF"/>
        </linearGradient>
        <linearGradient id="1wjfc025ju" x1="780.779%" x2="-111.429%" y1="616.764%" y2="-62.074%">
            <stop offset="0%" stop-color="#80ADFF"/>
            <stop offset="46.192%" stop-color="#98BEFF"/>
            <stop offset="100%" stop-color="#A9CBFF"/>
        </linearGradient>
        <linearGradient id="qhy7faw2gv" x1="780.779%" x2="-111.429%" y1="616.764%" y2="-62.074%">
            <stop offset="0%" stop-color="#80ADFF"/>
            <stop offset="46.192%" stop-color="#98BEFF"/>
            <stop offset="100%" stop-color="#A9CBFF"/>
        </linearGradient>
        <linearGradient id="pgsuinvy9w" x1="780.779%" x2="-111.429%" y1="616.764%" y2="-62.074%">
            <stop offset="0%" stop-color="#80ADFF"/>
            <stop offset="46.192%" stop-color="#98BEFF"/>
            <stop offset="100%" stop-color="#A9CBFF"/>
        </linearGradient>
        <linearGradient id="2act799mjx" x1="780.779%" x2="-111.429%" y1="616.763%" y2="-62.074%">
            <stop offset="0%" stop-color="#80ADFF"/>
            <stop offset="46.192%" stop-color="#98BEFF"/>
            <stop offset="100%" stop-color="#A9CBFF"/>
        </linearGradient>
        <linearGradient id="cfzzngl6fy" x1="780.779%" x2="-111.429%" y1="616.764%" y2="-62.074%">
            <stop offset="0%" stop-color="#80ADFF"/>
            <stop offset="46.192%" stop-color="#98BEFF"/>
            <stop offset="100%" stop-color="#A9CBFF"/>
        </linearGradient>
        <linearGradient id="bumwuk5coz" x1="780.779%" x2="-111.429%" y1="616.764%" y2="-62.074%">
            <stop offset="0%" stop-color="#80ADFF"/>
            <stop offset="46.192%" stop-color="#98BEFF"/>
            <stop offset="100%" stop-color="#A9CBFF"/>
        </linearGradient>
        <linearGradient id="2970wntt6A" x1="780.779%" x2="-111.429%" y1="616.764%" y2="-62.074%">
            <stop offset="0%" stop-color="#80ADFF"/>
            <stop offset="46.192%" stop-color="#98BEFF"/>
            <stop offset="100%" stop-color="#A9CBFF"/>
        </linearGradient>
        <linearGradient id="veac3donbB" x1="780.779%" x2="-111.429%" y1="616.764%" y2="-62.074%">
            <stop offset="0%" stop-color="#80ADFF"/>
            <stop offset="46.192%" stop-color="#98BEFF"/>
            <stop offset="100%" stop-color="#A9CBFF"/>
        </linearGradient>
        <linearGradient id="x72aaadnrC" x1="780.779%" x2="-111.429%" y1="616.764%" y2="-62.074%">
            <stop offset="0%" stop-color="#80ADFF"/>
            <stop offset="46.192%" stop-color="#98BEFF"/>
            <stop offset="100%" stop-color="#A9CBFF"/>
        </linearGradient>
        <linearGradient id="smfj06kt1D" x1="780.779%" x2="-111.429%" y1="616.764%" y2="-62.074%">
            <stop offset="0%" stop-color="#80ADFF"/>
            <stop offset="46.192%" stop-color="#98BEFF"/>
            <stop offset="100%" stop-color="#A9CBFF"/>
        </linearGradient>
        <linearGradient id="ya28mnzk8E" x1="780.779%" x2="-111.429%" y1="616.764%" y2="-62.074%">
            <stop offset="0%" stop-color="#80ADFF"/>
            <stop offset="46.192%" stop-color="#98BEFF"/>
            <stop offset="100%" stop-color="#A9CBFF"/>
        </linearGradient>
        <linearGradient id="oxyeh2psgF" x1="780.779%" x2="-111.429%" y1="616.764%" y2="-62.074%">
            <stop offset="0%" stop-color="#80ADFF"/>
            <stop offset="46.192%" stop-color="#98BEFF"/>
            <stop offset="100%" stop-color="#A9CBFF"/>
        </linearGradient>
        <linearGradient id="ceglmiz49G" x1="780.779%" x2="-111.429%" y1="616.764%" y2="-62.074%">
            <stop offset="0%" stop-color="#80ADFF"/>
            <stop offset="46.192%" stop-color="#98BEFF"/>
            <stop offset="100%" stop-color="#A9CBFF"/>
        </linearGradient>
        <linearGradient id="zo8aqj18pH" x1="780.779%" x2="-111.429%" y1="616.764%" y2="-62.074%">
            <stop offset="0%" stop-color="#80ADFF"/>
            <stop offset="46.192%" stop-color="#98BEFF"/>
            <stop offset="100%" stop-color="#A9CBFF"/>
        </linearGradient>
        <linearGradient id="fxlpyb0cxI" x1="780.779%" x2="-111.429%" y1="616.764%" y2="-62.074%">
            <stop offset="0%" stop-color="#80ADFF"/>
            <stop offset="46.192%" stop-color="#98BEFF"/>
            <stop offset="100%" stop-color="#A9CBFF"/>
        </linearGradient>
        <linearGradient id="w0h2agzupJ" x1="700.615%" x2="-93.721%" y1="617.572%" y2="-62.234%">
            <stop offset="0%" stop-color="#80ADFF"/>
            <stop offset="46.192%" stop-color="#98BEFF"/>
            <stop offset="100%" stop-color="#A9CBFF"/>
        </linearGradient>
        <linearGradient id="prp9h6wu1K" x1="780.779%" x2="-111.429%" y1="616.764%" y2="-62.074%">
            <stop offset="0%" stop-color="#80ADFF"/>
            <stop offset="46.192%" stop-color="#98BEFF"/>
            <stop offset="100%" stop-color="#A9CBFF"/>
        </linearGradient>
        <linearGradient id="abxv3l1psL" x1="780.779%" x2="-111.429%" y1="616.764%" y2="-62.074%">
            <stop offset="0%" stop-color="#80ADFF"/>
            <stop offset="46.192%" stop-color="#98BEFF"/>
            <stop offset="100%" stop-color="#A9CBFF"/>
        </linearGradient>
        <linearGradient id="axf00bjewM" x1="780.779%" x2="-111.429%" y1="616.764%" y2="-62.074%">
            <stop offset="0%" stop-color="#80ADFF"/>
            <stop offset="46.192%" stop-color="#98BEFF"/>
            <stop offset="100%" stop-color="#A9CBFF"/>
        </linearGradient>
        <linearGradient id="zens08nwnN" x1="780.779%" x2="-111.429%" y1="616.764%" y2="-62.074%">
            <stop offset="0%" stop-color="#80ADFF"/>
            <stop offset="46.192%" stop-color="#98BEFF"/>
            <stop offset="100%" stop-color="#A9CBFF"/>
        </linearGradient>
        <linearGradient id="g08s9no77O" x1="780.779%" x2="-111.429%" y1="616.763%" y2="-62.074%">
            <stop offset="0%" stop-color="#80ADFF"/>
            <stop offset="46.192%" stop-color="#98BEFF"/>
            <stop offset="100%" stop-color="#A9CBFF"/>
        </linearGradient>
        <linearGradient id="hclbdezpgP" x1="780.779%" x2="-111.429%" y1="616.764%" y2="-62.074%">
            <stop offset="0%" stop-color="#80ADFF"/>
            <stop offset="46.192%" stop-color="#98BEFF"/>
            <stop offset="100%" stop-color="#A9CBFF"/>
        </linearGradient>
        <linearGradient id="gnvocx9amQ" x1="780.779%" x2="-111.429%" y1="616.764%" y2="-62.074%">
            <stop offset="0%" stop-color="#80ADFF"/>
            <stop offset="46.192%" stop-color="#98BEFF"/>
            <stop offset="100%" stop-color="#A9CBFF"/>
        </linearGradient>
        <linearGradient id="ztcovg5vyR" x1="780.779%" x2="-111.429%" y1="616.764%" y2="-62.074%">
            <stop offset="0%" stop-color="#80ADFF"/>
            <stop offset="46.192%" stop-color="#98BEFF"/>
            <stop offset="100%" stop-color="#A9CBFF"/>
        </linearGradient>
        <linearGradient id="c1olwf723S" x1="780.779%" x2="-111.429%" y1="616.764%" y2="-62.074%">
            <stop offset="0%" stop-color="#80ADFF"/>
            <stop offset="46.192%" stop-color="#98BEFF"/>
            <stop offset="100%" stop-color="#A9CBFF"/>
        </linearGradient>
        <linearGradient id="8bqng990pT" x1="780.779%" x2="-111.429%" y1="616.764%" y2="-62.074%">
            <stop offset="0%" stop-color="#80ADFF"/>
            <stop offset="46.192%" stop-color="#98BEFF"/>
            <stop offset="100%" stop-color="#A9CBFF"/>
        </linearGradient>
        <linearGradient id="4onbkv8thU" x1="780.779%" x2="-111.429%" y1="616.764%" y2="-62.074%">
            <stop offset="0%" stop-color="#80ADFF"/>
            <stop offset="46.192%" stop-color="#98BEFF"/>
            <stop offset="100%" stop-color="#A9CBFF"/>
        </linearGradient>
    </defs>
    <g fill="none" fill-rule="evenodd" opacity=".2">
        <g fill-rule="nonzero">
            <g>
                <g>
                    <g style="mix-blend-mode:multiply" transform="translate(-61.000000, -2404.000000) translate(61.000000, 2404.000000)">
                        <path fill="url(#4p22vxxb4a)" d="M5.414 125.179L5.33 125.123 0 128.198 0 128.576 5.33 125.5 43.113 147.307 43.113 190.92 5.33 212.727 0 209.652 0 210.029 5.246 213.049 5.33 213.104 43.365 191.158 43.449 191.102 43.449 147.125z"/>
                        <path fill="url(#x445eyyalb)" d="M0 209.652L0 210.029 5.162 213.007 5.162 256.62 0 259.597 0 259.975 5.414 256.858 5.498 256.802 5.498 212.811z"/>
                        <path fill="url(#b0nk3r8cmc)" d="M43.28 278.804h-.083L5.162 256.802V212.81h.084l38.035-21.947h.084L81.4 212.811v43.99h-.084L43.28 278.805zM5.513 256.62l37.769 21.793L81.05 256.62v-43.613L43.28 191.2 5.513 213.007v43.613z"/>
                        <path fill="url(#b0nk3r8cmc)" d="M119.197 278.804h-.084l-37.979-22.002V212.81h.084l38.035-21.947h.084l38.035 21.947v43.99h-.084l-38.091 22.003zm-37.77-22.184l37.77 21.793 37.77-21.793v-43.613l-37.77-21.807-37.77 21.807v43.613z"/>
                        <path fill="url(#b0nk3r8cmc)" d="M195.113 278.804h-.084l-38.035-21.946V212.81h.084l38.035-21.947h.084l38.035 21.947v43.99h-.084l-38.035 22.003zm-37.77-22.184l37.77 21.793 37.77-21.793v-43.613l-37.77-21.807-37.77 21.807v43.613z"/>
                        <path fill="url(#vxy7rpt7yd)" d="M5.414 256.564L5.33 256.522 0 259.597 0 259.975 5.33 256.9 43.113 278.706 43.113 322.306 5.33 344.112 0 341.037 0 341.428 5.246 344.448 5.33 344.49 43.365 322.543 43.449 322.501 43.449 278.511z"/>
                        <path fill="url(#ciuvmesgde)" d="M81.246 344.49h-.084l-38.05-21.947v-44.032h.085l38.049-21.947h.07l38.049 21.947v43.99h-.084L81.246 344.49zm-37.77-22.184l37.77 21.806 37.77-21.806v-43.6L81.245 256.9l-37.77 21.806v43.6z"/>
                        <path fill="url(#ciuvmesgde)" d="M157.148 344.49L119.1 322.543v-44.032h.084l38.035-21.947h.084l38.049 21.947v43.99h-.084l-38.119 21.989zm-37.77-22.184l37.77 21.806 37.77-21.806v-43.6l-37.77-21.806-37.77 21.806v43.6z"/>
                        <path fill="url(#51dpneaibf)" d="M0 341.037L0 341.428 5.162 344.406 5.162 388.005 0 390.983 0 391.374 5.414 388.243 5.498 388.201 5.498 344.21z"/>
                        <path fill="url(#h3koel0ohg)" d="M43.28 410.19h-.083L5.162 388.2v-43.99h.084l38.035-21.946h.084L81.4 344.21v43.99h-.084L43.28 410.19zM5.513 388.004l37.769 21.807 37.769-21.807v-43.6L43.28 322.6 5.513 344.406v43.6z"/>
                        <path fill="url(#h3koel0ohg)" d="M119.197 410.19h-.084L81.134 388.2v-43.99h.084l38.035-21.946h.084l38.035 21.946v43.99h-.084l-38.091 21.99zm-37.77-22.185l37.77 21.807 37.77-21.807v-43.6l-37.77-21.806-37.77 21.807v43.6z"/>
                        <path fill="url(#h3koel0ohg)" d="M195.113 410.19h-.084l-38.035-21.947V344.21h.084l38.035-21.946h.084l38.035 21.946v43.99h-.084l-38.035 21.99zm-37.77-22.185l37.77 21.807 37.77-21.807v-43.6l-37.77-21.806-37.77 21.807v43.6z"/>
                        <path fill="url(#fp12k8gbbh)" d="M5.414 387.963L5.33 387.907 0 390.983 0 391.374 5.33 388.299 43.113 410.092 43.113 422.742 43.449 422.742 43.449 409.91z"/>
                        <path fill="url(#8hnh0hauji)" d="M43.449 422.742L43.449 410.092 81.246 388.299 119.029 410.092 119.029 422.742 119.365 422.742 119.365 409.91 81.316 387.963 81.246 387.907 43.197 409.854 43.113 409.91 43.113 422.742z"/>
                        <path fill="url(#8hnh0hauji)" d="M119.365 422.742L119.365 410.092 157.148 388.299 194.945 410.092 194.945 422.742 195.281 422.742 195.281 409.91 157.232 387.963 157.148 387.907 119.113 409.854 119.029 409.91 119.029 422.742z"/>
                        <path fill="url(#8hnh0hauji)" d="M195.281 422.742L195.281 410.092 233.064 388.299 270.862 410.092 270.862 422.742 271.197 422.742 271.197 409.91 233.148 387.963 233.064 387.907 195.029 409.854 194.945 409.91 194.945 422.742z"/>
                        <path fill="url(#81z9r6i6wj)" d="M0 25.749L0 27.734 3.973 30.026 3.973 86.122 0 88.415 0 90.386 5.693 87.101 5.693 29.034z"/>
                        <path fill="url(#8rpujgf4kk)" d="M54.304 116.149L3.944 87.1V29.034L54.305 0l50.359 29.034V87.1l-50.36 29.048zM5.694 86.122l48.61 28.042 48.61-28.042V30.026L54.304 1.985 5.694 30.026v56.096z"/>
                        <path fill="url(#4y0sg4miyl)" d="M4.84 85.619L0 88.415 0 90.386 4.84 87.604 53.437 115.645 53.437 171.742 4.84 199.783 0 197.001 0 198.972 4.84 201.768 55.157 172.734 55.157 114.653z"/>
                        <path fill="url(#9thsky3uxm)" d="M103.768 201.768l-50.36-29.034v-58.11l50.36-29.033 50.359 29.034v58.081l-50.36 29.062zm-48.61-30.026l48.61 28.04 48.61-28.04v-56.097l-48.61-28.04-48.61 28.04v56.097z"/>
                        <path fill="url(#81z9r6i6wj)" d="M0 197.001L0 198.972 3.973 201.265 3.973 257.361 0 259.653 0 261.638 5.693 258.353 5.693 200.272z"/>
                        <path fill="url(#8rpujgf4kk)" d="M54.304 287.387l-50.36-29.034v-58.081l50.36-29.034 50.359 29.034v58.081l-50.36 29.034zm-48.61-30.026l48.61 28.041 48.61-28.041v-56.069l-48.61-28.069-48.61 28.07v56.068z"/>
                        <path fill="url(#4y0sg4miyl)" d="M4.84 256.858L0 259.653 0 261.638 4.84 258.843 53.437 286.884 53.437 342.98 4.84 371.021 0 368.239 0 370.224 4.84 373.006 55.157 343.973 55.157 285.905z"/>
                        <path fill="url(#8rpujgf4kk)" d="M103.768 373.006l-50.36-29.033v-58.068l50.36-29.047 50.359 29.047v58.068l-50.36 29.033zm-48.61-30.026l48.61 28.041 48.61-28.041v-56.096l-48.61-28.041-48.61 28.04v56.097z"/>
                        <path fill="url(#xz5fms1t7n)" d="M0 368.239L0 370.224 3.973 372.517 3.973 422.742 5.693 422.742 5.693 371.524z"/>
                        <path fill="url(#f46nfactno)" d="M5.693 422.742L5.693 372.517 54.304 344.462 102.914 372.517 102.914 422.742 104.635 422.742 104.635 371.524 54.304 342.477 3.973 371.524 3.973 422.742z"/>
                        <path fill="url(#6rt84bn4hp)" d="M104.635 422.742L104.635 372.517 153.245 344.462 201.842 372.517 201.842 422.742 203.562 422.742 203.562 371.524 153.245 342.477 102.914 371.524 102.914 422.742z"/>
                        <path fill="url(#f46nfactno)" d="M203.562 422.742L203.562 372.517 252.173 344.462 300.783 372.517 300.783 422.742 302.504 422.742 302.504 371.524 252.173 342.477 201.842 371.524 201.842 422.742z"/>
                        <path fill="url(#x6jon2ongq)" d="M40.79 147.21c-.005 1.007.598 1.918 1.528 2.308.93.39 2.003.18 2.718-.53.715-.711.931-1.782.547-2.714-.385-.931-1.294-1.54-2.302-1.54-1.37 0-2.483 1.106-2.49 2.475z"/>
                        <path fill="url(#yd161j6ccr)" d="M5.33 130.155c2.673 0 4.84-2.165 4.84-4.836 0-2.672-2.167-4.837-4.84-4.837s-4.84 2.165-4.84 4.837c0 2.67 2.167 4.836 4.84 4.836z"/>
                        <path fill="url(#1mx5cb1f4s)" d="M43.28 195.128c2.272 0 4.113-1.84 4.113-4.11 0-2.27-1.84-4.11-4.112-4.11-2.272 0-4.113 1.84-4.113 4.11 0 2.27 1.841 4.11 4.113 4.11z"/>
                        <path fill="url(#q7tsh24gxt)" d="M121.155 191.018c.006-.793-.467-1.51-1.199-1.818-.731-.307-1.576-.143-2.139.415-.563.559-.733 1.402-.43 2.135.302.733 1.017 1.211 1.81 1.211 1.076 0 1.95-.867 1.958-1.943z"/>
                        <ellipse cx="157.148" cy="212.909" fill="url(#1wjfc025ju)" rx="3.777" ry="3.774"/>
                        <path fill="url(#qhy7faw2gv)" d="M198.764 191.018c0-2.015-1.634-3.648-3.65-3.648-2.017 0-3.652 1.633-3.652 3.648s1.635 3.649 3.651 3.649c2.017 0 3.651-1.634 3.651-3.649z"/>
                        <ellipse cx="233.064" cy="212.909" fill="url(#pgsuinvy9w)" rx="4.267" ry="4.263"/>
                        <path fill="url(#2act799mjx)" d="M2.14 256.704c-.005 1.29.768 2.457 1.96 2.954 1.19.498 2.565.229 3.48-.682.915-.91 1.19-2.282.698-3.475-.493-1.192-1.657-1.97-2.948-1.97-1.756 0-3.182 1.418-3.19 3.173z"/>
                        <path fill="url(#cfzzngl6fy)" d="M7.512 212.909c0-1.205-.977-2.18-2.182-2.18-1.206 0-2.183.975-2.183 2.18 0 1.204.977 2.18 2.183 2.18 1.205 0 2.182-.976 2.182-2.18z"/>
                        <ellipse cx="81.246" cy="212.909" fill="url(#bumwuk5coz)" rx="1.791" ry="1.789"/>
                        <path fill="url(#2970wntt6A)" d="M116.19 278.608c0 1.66 1.346 3.006 3.007 3.006s3.008-1.346 3.008-3.006c0-1.66-1.347-3.005-3.008-3.005s-3.008 1.346-3.008 3.005z"/>
                        <path fill="url(#veac3donbB)" d="M81.246 252.384c-1.757-.005-3.343 1.048-4.018 2.669-.675 1.62-.304 3.488.938 4.729s3.11 1.61 4.732.937c1.622-.675 2.676-2.26 2.67-4.015 0-2.386-1.935-4.32-4.322-4.32z"/>
                        <ellipse cx="233.064" cy="256.704" fill="url(#x72aaadnrC)" rx="4.672" ry="4.669"/>
                        <ellipse cx="43.281" cy="278.608" fill="url(#smfj06kt1D)" rx="2.882" ry="2.88"/>
                        <path fill="url(#ya28mnzk8E)" d="M43.28 327.1c1.909.006 3.632-1.138 4.366-2.898.734-1.76.334-3.788-1.013-5.139-1.347-1.35-3.376-1.755-5.139-1.027-1.763.728-2.913 2.447-2.913 4.353 0 2.597 2.102 4.704 4.7 4.711z"/>
                        <ellipse cx="157.148" cy="256.704" fill="url(#oxyeh2psgF)" rx="4.924" ry="4.92"/>
                        <path fill="url(#ceglmiz49G)" d="M193.309 278.608c0 .996.808 1.804 1.804 1.804.997 0 1.805-.808 1.805-1.804s-.808-1.803-1.805-1.803c-.996 0-1.804.807-1.804 1.803z"/>
                        <ellipse cx="233.064" cy="344.308" fill="url(#zo8aqj18pH)" rx="3.623" ry="3.62"/>
                        <path fill="url(#fxlpyb0cxI)" d="M195.113 316.868c-3.09 0-5.595 2.503-5.595 5.591s2.505 5.592 5.595 5.592 5.596-2.504 5.596-5.592c0-3.088-2.506-5.591-5.596-5.591z"/>
                        <path fill="url(#w0h2agzupJ)" d="M5.33 338.283c-2.239.004-4.291 1.248-5.33 3.23v5.59c1.373 2.62 4.444 3.856 7.25 2.92 2.807-.937 4.518-3.77 4.04-6.687-.477-2.918-3.002-5.058-5.96-5.053z"/>
                        <path fill="url(#prp9h6wu1K)" d="M43.28 412.608c1.061.005 2.02-.63 2.429-1.608.408-.978.185-2.105-.565-2.855s-1.878-.972-2.857-.564c-.979.409-1.614 1.367-1.608 2.427.008 1.432 1.168 2.592 2.602 2.6z"/>
                        <path fill="url(#abxv3l1psL)" d="M81.246 393.247c2.841-.007 5.139-2.314 5.134-5.153-.005-2.84-2.312-5.138-5.153-5.135-2.841.003-5.143 2.305-5.143 5.144 0 1.367.544 2.677 1.513 3.643.968.965 2.281 1.505 3.649 1.501z"/>
                        <path fill="url(#axf00bjewM)" d="M81.246 340.66c-1.478-.006-2.814.88-3.383 2.242-.57 1.363-.26 2.935.782 3.98 1.043 1.047 2.615 1.362 3.98.798 1.367-.564 2.258-1.895 2.258-3.372 0-2.01-1.626-3.64-3.637-3.648z"/>
                        <path fill="url(#zens08nwnN)" d="M119.197 326.555c2.318 0 4.197-1.877 4.197-4.193 0-2.317-1.88-4.194-4.197-4.194-2.318 0-4.197 1.877-4.197 4.194 0 2.316 1.88 4.193 4.197 4.193z"/>
                        <path fill="url(#g08s9no77O)" d="M161.904 344.308c.006-1.924-1.15-3.66-2.926-4.4-1.777-.74-3.825-.338-5.188 1.02-1.363 1.359-1.773 3.404-1.037 5.182.735 1.777 2.47 2.937 4.395 2.937 2.621 0 4.749-2.12 4.756-4.739z"/>
                        <path fill="url(#hclbdezpgP)" d="M195.113 413.768c2.063 0 3.735-1.671 3.735-3.732 0-2.062-1.672-3.733-3.735-3.733-2.063 0-3.735 1.671-3.735 3.733.008 2.058 1.676 3.724 3.735 3.732z"/>
                        <ellipse cx="233.064" cy="388.103" fill="url(#gnvocx9amQ)" rx="3.945" ry="3.942"/>
                        <path fill="url(#ztcovg5vyR)" d="M5.33 386.146c-1.082 0-1.959.876-1.959 1.957 0 1.08.877 1.957 1.959 1.957 1.081 0 1.958-.876 1.958-1.957 0-1.08-.877-1.957-1.958-1.957z"/>
                        <path fill="url(#c1olwf723S)" d="M119.197 405.087c-1.992 0-3.787 1.199-4.55 3.038-.761 1.838-.34 3.955 1.068 5.362 1.408 1.407 3.526 1.828 5.366 1.067 1.84-.762 3.04-2.556 3.04-4.546 0-2.718-2.205-4.92-4.924-4.92z"/>
                        <ellipse cx="157.148" cy="388.103" fill="url(#8bqng990pT)" rx="2.196" ry="2.195"/>
                        <ellipse cx="271.029" cy="410.008" fill="url(#4onbkv8thU)" rx="2.91" ry="2.908"/>
                    </g>
                </g>
                <g>
                    <g style="mix-blend-mode:multiply" transform="translate(-61.000000, -2404.000000) translate(61.000000, 2404.000000) translate(151.500000, 608.500000) scale(1, -1) translate(-151.500000, -608.500000) translate(0.000000, 397.000000)">
                        <path fill="url(#4p22vxxb4a)" d="M5.414 125.179L5.33 125.123 0 128.198 0 128.576 5.33 125.5 43.113 147.307 43.113 190.92 5.33 212.727 0 209.652 0 210.029 5.246 213.049 5.33 213.104 43.365 191.158 43.449 191.102 43.449 147.125z"/>
                        <path fill="url(#x445eyyalb)" d="M0 209.652L0 210.029 5.162 213.007 5.162 256.62 0 259.597 0 259.975 5.414 256.858 5.498 256.802 5.498 212.811z"/>
                        <path fill="url(#b0nk3r8cmc)" d="M43.28 278.804h-.083L5.162 256.802V212.81h.084l38.035-21.947h.084L81.4 212.811v43.99h-.084L43.28 278.805zM5.513 256.62l37.769 21.793L81.05 256.62v-43.613L43.28 191.2 5.513 213.007v43.613z"/>
                        <path fill="url(#b0nk3r8cmc)" d="M119.197 278.804h-.084l-37.979-22.002V212.81h.084l38.035-21.947h.084l38.035 21.947v43.99h-.084l-38.091 22.003zm-37.77-22.184l37.77 21.793 37.77-21.793v-43.613l-37.77-21.807-37.77 21.807v43.613z"/>
                        <path fill="url(#b0nk3r8cmc)" d="M195.113 278.804h-.084l-38.035-21.946V212.81h.084l38.035-21.947h.084l38.035 21.947v43.99h-.084l-38.035 22.003zm-37.77-22.184l37.77 21.793 37.77-21.793v-43.613l-37.77-21.807-37.77 21.807v43.613z"/>
                        <path fill="url(#vxy7rpt7yd)" d="M5.414 256.564L5.33 256.522 0 259.597 0 259.975 5.33 256.9 43.113 278.706 43.113 322.306 5.33 344.112 0 341.037 0 341.428 5.246 344.448 5.33 344.49 43.365 322.543 43.449 322.501 43.449 278.511z"/>
                        <path fill="url(#ciuvmesgde)" d="M81.246 344.49h-.084l-38.05-21.947v-44.032h.085l38.049-21.947h.07l38.049 21.947v43.99h-.084L81.246 344.49zm-37.77-22.184l37.77 21.806 37.77-21.806v-43.6L81.245 256.9l-37.77 21.806v43.6z"/>
                        <path fill="url(#ciuvmesgde)" d="M157.148 344.49L119.1 322.543v-44.032h.084l38.035-21.947h.084l38.049 21.947v43.99h-.084l-38.119 21.989zm-37.77-22.184l37.77 21.806 37.77-21.806v-43.6l-37.77-21.806-37.77 21.806v43.6z"/>
                        <path fill="url(#51dpneaibf)" d="M0 341.037L0 341.428 5.162 344.406 5.162 388.005 0 390.983 0 391.374 5.414 388.243 5.498 388.201 5.498 344.21z"/>
                        <path fill="url(#h3koel0ohg)" d="M43.28 410.19h-.083L5.162 388.2v-43.99h.084l38.035-21.946h.084L81.4 344.21v43.99h-.084L43.28 410.19zM5.513 388.004l37.769 21.807 37.769-21.807v-43.6L43.28 322.6 5.513 344.406v43.6z"/>
                        <path fill="url(#h3koel0ohg)" d="M119.197 410.19h-.084L81.134 388.2v-43.99h.084l38.035-21.946h.084l38.035 21.946v43.99h-.084l-38.091 21.99zm-37.77-22.185l37.77 21.807 37.77-21.807v-43.6l-37.77-21.806-37.77 21.807v43.6z"/>
                        <path fill="url(#h3koel0ohg)" d="M195.113 410.19h-.084l-38.035-21.947V344.21h.084l38.035-21.946h.084l38.035 21.946v43.99h-.084l-38.035 21.99zm-37.77-22.185l37.77 21.807 37.77-21.807v-43.6l-37.77-21.806-37.77 21.807v43.6z"/>
                        <path fill="url(#fp12k8gbbh)" d="M5.414 387.963L5.33 387.907 0 390.983 0 391.374 5.33 388.299 43.113 410.092 43.113 422.742 43.449 422.742 43.449 409.91z"/>
                        <path fill="url(#8hnh0hauji)" d="M43.449 422.742L43.449 410.092 81.246 388.299 119.029 410.092 119.029 422.742 119.365 422.742 119.365 409.91 81.316 387.963 81.246 387.907 43.197 409.854 43.113 409.91 43.113 422.742z"/>
                        <path fill="url(#8hnh0hauji)" d="M119.365 422.742L119.365 410.092 157.148 388.299 194.945 410.092 194.945 422.742 195.281 422.742 195.281 409.91 157.232 387.963 157.148 387.907 119.113 409.854 119.029 409.91 119.029 422.742z"/>
                        <path fill="url(#8hnh0hauji)" d="M195.281 422.742L195.281 410.092 233.064 388.299 270.862 410.092 270.862 422.742 271.197 422.742 271.197 409.91 233.148 387.963 233.064 387.907 195.029 409.854 194.945 409.91 194.945 422.742z"/>
                        <path fill="url(#81z9r6i6wj)" d="M0 25.749L0 27.734 3.973 30.026 3.973 86.122 0 88.415 0 90.386 5.693 87.101 5.693 29.034z"/>
                        <path fill="url(#8rpujgf4kk)" d="M54.304 116.149L3.944 87.1V29.034L54.305 0l50.359 29.034V87.1l-50.36 29.048zM5.694 86.122l48.61 28.042 48.61-28.042V30.026L54.304 1.985 5.694 30.026v56.096z"/>
                        <path fill="url(#4y0sg4miyl)" d="M4.84 85.619L0 88.415 0 90.386 4.84 87.604 53.437 115.645 53.437 171.742 4.84 199.783 0 197.001 0 198.972 4.84 201.768 55.157 172.734 55.157 114.653z"/>
                        <path fill="url(#9thsky3uxm)" d="M103.768 201.768l-50.36-29.034v-58.11l50.36-29.033 50.359 29.034v58.081l-50.36 29.062zm-48.61-30.026l48.61 28.04 48.61-28.04v-56.097l-48.61-28.04-48.61 28.04v56.097z"/>
                        <path fill="url(#81z9r6i6wj)" d="M0 197.001L0 198.972 3.973 201.265 3.973 257.361 0 259.653 0 261.638 5.693 258.353 5.693 200.272z"/>
                        <path fill="url(#8rpujgf4kk)" d="M54.304 287.387l-50.36-29.034v-58.081l50.36-29.034 50.359 29.034v58.081l-50.36 29.034zm-48.61-30.026l48.61 28.041 48.61-28.041v-56.069l-48.61-28.069-48.61 28.07v56.068z"/>
                        <path fill="url(#4y0sg4miyl)" d="M4.84 256.858L0 259.653 0 261.638 4.84 258.843 53.437 286.884 53.437 342.98 4.84 371.021 0 368.239 0 370.224 4.84 373.006 55.157 343.973 55.157 285.905z"/>
                        <path fill="url(#8rpujgf4kk)" d="M103.768 373.006l-50.36-29.033v-58.068l50.36-29.047 50.359 29.047v58.068l-50.36 29.033zm-48.61-30.026l48.61 28.041 48.61-28.041v-56.096l-48.61-28.041-48.61 28.04v56.097z"/>
                        <path fill="url(#xz5fms1t7n)" d="M0 368.239L0 370.224 3.973 372.517 3.973 422.742 5.693 422.742 5.693 371.524z"/>
                        <path fill="url(#f46nfactno)" d="M5.693 422.742L5.693 372.517 54.304 344.462 102.914 372.517 102.914 422.742 104.635 422.742 104.635 371.524 54.304 342.477 3.973 371.524 3.973 422.742z"/>
                        <path fill="url(#6rt84bn4hp)" d="M104.635 422.742L104.635 372.517 153.245 344.462 201.842 372.517 201.842 422.742 203.562 422.742 203.562 371.524 153.245 342.477 102.914 371.524 102.914 422.742z"/>
                        <path fill="url(#f46nfactno)" d="M203.562 422.742L203.562 372.517 252.173 344.462 300.783 372.517 300.783 422.742 302.504 422.742 302.504 371.524 252.173 342.477 201.842 371.524 201.842 422.742z"/>
                        <path fill="url(#x6jon2ongq)" d="M40.79 147.21c-.005 1.007.598 1.918 1.528 2.308.93.39 2.003.18 2.718-.53.715-.711.931-1.782.547-2.714-.385-.931-1.294-1.54-2.302-1.54-1.37 0-2.483 1.106-2.49 2.475z"/>
                        <path fill="url(#yd161j6ccr)" d="M5.33 130.155c2.673 0 4.84-2.165 4.84-4.836 0-2.672-2.167-4.837-4.84-4.837s-4.84 2.165-4.84 4.837c0 2.67 2.167 4.836 4.84 4.836z"/>
                        <path fill="url(#1mx5cb1f4s)" d="M43.28 195.128c2.272 0 4.113-1.84 4.113-4.11 0-2.27-1.84-4.11-4.112-4.11-2.272 0-4.113 1.84-4.113 4.11 0 2.27 1.841 4.11 4.113 4.11z"/>
                        <path fill="url(#q7tsh24gxt)" d="M121.155 191.018c.006-.793-.467-1.51-1.199-1.818-.731-.307-1.576-.143-2.139.415-.563.559-.733 1.402-.43 2.135.302.733 1.017 1.211 1.81 1.211 1.076 0 1.95-.867 1.958-1.943z"/>
                        <ellipse cx="157.148" cy="212.909" fill="url(#1wjfc025ju)" rx="3.777" ry="3.774"/>
                        <path fill="url(#qhy7faw2gv)" d="M198.764 191.018c0-2.015-1.634-3.648-3.65-3.648-2.017 0-3.652 1.633-3.652 3.648s1.635 3.649 3.651 3.649c2.017 0 3.651-1.634 3.651-3.649z"/>
                        <ellipse cx="233.064" cy="212.909" fill="url(#pgsuinvy9w)" rx="4.267" ry="4.263"/>
                        <path fill="url(#2act799mjx)" d="M2.14 256.704c-.005 1.29.768 2.457 1.96 2.954 1.19.498 2.565.229 3.48-.682.915-.91 1.19-2.282.698-3.475-.493-1.192-1.657-1.97-2.948-1.97-1.756 0-3.182 1.418-3.19 3.173z"/>
                        <path fill="url(#cfzzngl6fy)" d="M7.512 212.909c0-1.205-.977-2.18-2.182-2.18-1.206 0-2.183.975-2.183 2.18 0 1.204.977 2.18 2.183 2.18 1.205 0 2.182-.976 2.182-2.18z"/>
                        <ellipse cx="81.246" cy="212.909" fill="url(#bumwuk5coz)" rx="1.791" ry="1.789"/>
                        <path fill="url(#2970wntt6A)" d="M116.19 278.608c0 1.66 1.346 3.006 3.007 3.006s3.008-1.346 3.008-3.006c0-1.66-1.347-3.005-3.008-3.005s-3.008 1.346-3.008 3.005z"/>
                        <path fill="url(#veac3donbB)" d="M81.246 252.384c-1.757-.005-3.343 1.048-4.018 2.669-.675 1.62-.304 3.488.938 4.729s3.11 1.61 4.732.937c1.622-.675 2.676-2.26 2.67-4.015 0-2.386-1.935-4.32-4.322-4.32z"/>
                        <ellipse cx="233.064" cy="256.704" fill="url(#x72aaadnrC)" rx="4.672" ry="4.669"/>
                        <ellipse cx="43.281" cy="278.608" fill="url(#smfj06kt1D)" rx="2.882" ry="2.88"/>
                        <path fill="url(#ya28mnzk8E)" d="M43.28 327.1c1.909.006 3.632-1.138 4.366-2.898.734-1.76.334-3.788-1.013-5.139-1.347-1.35-3.376-1.755-5.139-1.027-1.763.728-2.913 2.447-2.913 4.353 0 2.597 2.102 4.704 4.7 4.711z"/>
                        <ellipse cx="157.148" cy="256.704" fill="url(#oxyeh2psgF)" rx="4.924" ry="4.92"/>
                        <path fill="url(#ceglmiz49G)" d="M193.309 278.608c0 .996.808 1.804 1.804 1.804.997 0 1.805-.808 1.805-1.804s-.808-1.803-1.805-1.803c-.996 0-1.804.807-1.804 1.803z"/>
                        <ellipse cx="233.064" cy="344.308" fill="url(#zo8aqj18pH)" rx="3.623" ry="3.62"/>
                        <path fill="url(#fxlpyb0cxI)" d="M195.113 316.868c-3.09 0-5.595 2.503-5.595 5.591s2.505 5.592 5.595 5.592 5.596-2.504 5.596-5.592c0-3.088-2.506-5.591-5.596-5.591z"/>
                        <path fill="url(#w0h2agzupJ)" d="M5.33 338.283c-2.239.004-4.291 1.248-5.33 3.23v5.59c1.373 2.62 4.444 3.856 7.25 2.92 2.807-.937 4.518-3.77 4.04-6.687-.477-2.918-3.002-5.058-5.96-5.053z"/>
                        <path fill="url(#prp9h6wu1K)" d="M43.28 412.608c1.061.005 2.02-.63 2.429-1.608.408-.978.185-2.105-.565-2.855s-1.878-.972-2.857-.564c-.979.409-1.614 1.367-1.608 2.427.008 1.432 1.168 2.592 2.602 2.6z"/>
                        <path fill="url(#abxv3l1psL)" d="M81.246 393.247c2.841-.007 5.139-2.314 5.134-5.153-.005-2.84-2.312-5.138-5.153-5.135-2.841.003-5.143 2.305-5.143 5.144 0 1.367.544 2.677 1.513 3.643.968.965 2.281 1.505 3.649 1.501z"/>
                        <path fill="url(#axf00bjewM)" d="M81.246 340.66c-1.478-.006-2.814.88-3.383 2.242-.57 1.363-.26 2.935.782 3.98 1.043 1.047 2.615 1.362 3.98.798 1.367-.564 2.258-1.895 2.258-3.372 0-2.01-1.626-3.64-3.637-3.648z"/>
                        <path fill="url(#zens08nwnN)" d="M119.197 326.555c2.318 0 4.197-1.877 4.197-4.193 0-2.317-1.88-4.194-4.197-4.194-2.318 0-4.197 1.877-4.197 4.194 0 2.316 1.88 4.193 4.197 4.193z"/>
                        <path fill="url(#g08s9no77O)" d="M161.904 344.308c.006-1.924-1.15-3.66-2.926-4.4-1.777-.74-3.825-.338-5.188 1.02-1.363 1.359-1.773 3.404-1.037 5.182.735 1.777 2.47 2.937 4.395 2.937 2.621 0 4.749-2.12 4.756-4.739z"/>
                        <path fill="url(#hclbdezpgP)" d="M195.113 413.768c2.063 0 3.735-1.671 3.735-3.732 0-2.062-1.672-3.733-3.735-3.733-2.063 0-3.735 1.671-3.735 3.733.008 2.058 1.676 3.724 3.735 3.732z"/>
                        <ellipse cx="233.064" cy="388.103" fill="url(#gnvocx9amQ)" rx="3.945" ry="3.942"/>
                        <path fill="url(#ztcovg5vyR)" d="M5.33 386.146c-1.082 0-1.959.876-1.959 1.957 0 1.08.877 1.957 1.959 1.957 1.081 0 1.958-.876 1.958-1.957 0-1.08-.877-1.957-1.958-1.957z"/>
                        <path fill="url(#c1olwf723S)" d="M119.197 405.087c-1.992 0-3.787 1.199-4.55 3.038-.761 1.838-.34 3.955 1.068 5.362 1.408 1.407 3.526 1.828 5.366 1.067 1.84-.762 3.04-2.556 3.04-4.546 0-2.718-2.205-4.92-4.924-4.92z"/>
                        <ellipse cx="157.148" cy="388.103" fill="url(#8bqng990pT)" rx="2.196" ry="2.195"/>
                        <ellipse cx="271.029" cy="410.008" fill="url(#4onbkv8thU)" rx="2.91" ry="2.908"/>
                    </g>
                </g>
            </g>
        </g>
    </g>
</svg>
