<svg xmlns="http://www.w3.org/2000/svg" xmlns:xlink="http://www.w3.org/1999/xlink" width="320" height="587" viewBox="0 0 320 587">
    <defs>
        <linearGradient id="02nu8b5kpb" x1="599.236%" x2="-71.327%" y1="617.572%" y2="-62.234%">
            <stop offset="0%" stop-color="#80ADFF"/>
            <stop offset="46.192%" stop-color="#98BEFF"/>
            <stop offset="100%" stop-color="#A9CBFF"/>
        </linearGradient>
        <linearGradient id="umz35f8ked" x1="599.612%" x2="-71.41%" y1="617.572%" y2="-62.234%">
            <stop offset="0%" stop-color="#80ADFF"/>
            <stop offset="46.192%" stop-color="#98BEFF"/>
            <stop offset="100%" stop-color="#A9CBFF"/>
        </linearGradient>
        <linearGradient id="55fx71g5de" x1="599.411%" x2="-71.365%" y1="617.572%" y2="-62.234%">
            <stop offset="0%" stop-color="#80ADFF"/>
            <stop offset="46.192%" stop-color="#98BEFF"/>
            <stop offset="100%" stop-color="#A9CBFF"/>
        </linearGradient>
        <linearGradient id="sl6omrfd5f" x1="780.779%" x2="-111.429%" y1="168.453%" y2="26.577%">
            <stop offset="0%" stop-color="#80ADFF"/>
            <stop offset="46.192%" stop-color="#98BEFF"/>
            <stop offset="100%" stop-color="#A9CBFF"/>
        </linearGradient>
        <linearGradient id="lxr4huc68g" x1="599.506%" x2="-71.386%" y1="617.572%" y2="-62.234%">
            <stop offset="0%" stop-color="#80ADFF"/>
            <stop offset="46.192%" stop-color="#98BEFF"/>
            <stop offset="100%" stop-color="#A9CBFF"/>
        </linearGradient>
        <linearGradient id="hifg5evyyh" x1="599.242%" x2="-71.328%" y1="617.572%" y2="-62.234%">
            <stop offset="0%" stop-color="#80ADFF"/>
            <stop offset="46.192%" stop-color="#98BEFF"/>
            <stop offset="100%" stop-color="#A9CBFF"/>
        </linearGradient>
        <linearGradient id="036s1a2bji" x1="780.779%" x2="-111.429%" y1="410.866%" y2="-21.359%">
            <stop offset="0%" stop-color="#80ADFF"/>
            <stop offset="46.192%" stop-color="#98BEFF"/>
            <stop offset="100%" stop-color="#A9CBFF"/>
        </linearGradient>
        <linearGradient id="if7jfj3omj" x1="780.779%" x2="-111.429%" y1="410.966%" y2="-21.379%">
            <stop offset="0%" stop-color="#80ADFF"/>
            <stop offset="46.192%" stop-color="#98BEFF"/>
            <stop offset="100%" stop-color="#A9CBFF"/>
        </linearGradient>
        <linearGradient id="oibbjfsmvk" x1="780.779%" x2="-111.429%" y1="616.763%" y2="-62.074%">
            <stop offset="0%" stop-color="#80ADFF"/>
            <stop offset="46.192%" stop-color="#98BEFF"/>
            <stop offset="100%" stop-color="#A9CBFF"/>
        </linearGradient>
        <linearGradient id="ptcnkwbonl" x1="780.779%" x2="-111.429%" y1="616.764%" y2="-62.074%">
            <stop offset="0%" stop-color="#80ADFF"/>
            <stop offset="46.192%" stop-color="#98BEFF"/>
            <stop offset="100%" stop-color="#A9CBFF"/>
        </linearGradient>
        <linearGradient id="fxrl677i8m" x1="780.779%" x2="-111.429%" y1="616.764%" y2="-62.074%">
            <stop offset="0%" stop-color="#80ADFF"/>
            <stop offset="46.192%" stop-color="#98BEFF"/>
            <stop offset="100%" stop-color="#A9CBFF"/>
        </linearGradient>
        <linearGradient id="yyitgtf2xn" x1="780.779%" x2="-111.429%" y1="616.764%" y2="-62.074%">
            <stop offset="0%" stop-color="#80ADFF"/>
            <stop offset="46.192%" stop-color="#98BEFF"/>
            <stop offset="100%" stop-color="#A9CBFF"/>
        </linearGradient>
        <linearGradient id="9fq0jgql0o" x1="780.779%" x2="-111.429%" y1="616.764%" y2="-62.074%">
            <stop offset="0%" stop-color="#80ADFF"/>
            <stop offset="46.192%" stop-color="#98BEFF"/>
            <stop offset="100%" stop-color="#A9CBFF"/>
        </linearGradient>
        <linearGradient id="ved8rpd3mp" x1="780.779%" x2="-111.429%" y1="616.764%" y2="-62.074%">
            <stop offset="0%" stop-color="#80ADFF"/>
            <stop offset="46.192%" stop-color="#98BEFF"/>
            <stop offset="100%" stop-color="#A9CBFF"/>
        </linearGradient>
        <linearGradient id="pglc1i5e4q" x1="780.779%" x2="-111.429%" y1="616.764%" y2="-62.074%">
            <stop offset="0%" stop-color="#80ADFF"/>
            <stop offset="46.192%" stop-color="#98BEFF"/>
            <stop offset="100%" stop-color="#A9CBFF"/>
        </linearGradient>
        <linearGradient id="cy5z1tcl4r" x1="780.779%" x2="-111.429%" y1="616.764%" y2="-62.074%">
            <stop offset="0%" stop-color="#80ADFF"/>
            <stop offset="46.192%" stop-color="#98BEFF"/>
            <stop offset="100%" stop-color="#A9CBFF"/>
        </linearGradient>
        <linearGradient id="veghgqi89s" x1="780.779%" x2="-111.429%" y1="616.764%" y2="-62.074%">
            <stop offset="0%" stop-color="#80ADFF"/>
            <stop offset="46.192%" stop-color="#98BEFF"/>
            <stop offset="100%" stop-color="#A9CBFF"/>
        </linearGradient>
        <linearGradient id="yjcda19kft" x1="780.779%" x2="-111.429%" y1="616.764%" y2="-62.074%">
            <stop offset="0%" stop-color="#80ADFF"/>
            <stop offset="46.192%" stop-color="#98BEFF"/>
            <stop offset="100%" stop-color="#A9CBFF"/>
        </linearGradient>
        <linearGradient id="bzjm7zfmdu" x1="780.779%" x2="-111.429%" y1="616.764%" y2="-62.074%">
            <stop offset="0%" stop-color="#80ADFF"/>
            <stop offset="46.192%" stop-color="#98BEFF"/>
            <stop offset="100%" stop-color="#A9CBFF"/>
        </linearGradient>
        <linearGradient id="7o40bf07kv" x1="780.779%" x2="-111.429%" y1="616.763%" y2="-62.074%">
            <stop offset="0%" stop-color="#80ADFF"/>
            <stop offset="46.192%" stop-color="#98BEFF"/>
            <stop offset="100%" stop-color="#A9CBFF"/>
        </linearGradient>
        <linearGradient id="oa4wpmexgw" x1="780.779%" x2="-111.429%" y1="616.764%" y2="-62.074%">
            <stop offset="0%" stop-color="#80ADFF"/>
            <stop offset="46.192%" stop-color="#98BEFF"/>
            <stop offset="100%" stop-color="#A9CBFF"/>
        </linearGradient>
        <linearGradient id="iv0lcxz6kx" x1="780.779%" x2="-111.429%" y1="616.764%" y2="-62.074%">
            <stop offset="0%" stop-color="#80ADFF"/>
            <stop offset="46.192%" stop-color="#98BEFF"/>
            <stop offset="100%" stop-color="#A9CBFF"/>
        </linearGradient>
        <linearGradient id="hbbbzayhwy" x1="780.779%" x2="-111.429%" y1="616.764%" y2="-62.074%">
            <stop offset="0%" stop-color="#80ADFF"/>
            <stop offset="46.192%" stop-color="#98BEFF"/>
            <stop offset="100%" stop-color="#A9CBFF"/>
        </linearGradient>
        <linearGradient id="tw3o791s1z" x1="780.779%" x2="-111.429%" y1="616.764%" y2="-62.074%">
            <stop offset="0%" stop-color="#80ADFF"/>
            <stop offset="46.192%" stop-color="#98BEFF"/>
            <stop offset="100%" stop-color="#A9CBFF"/>
        </linearGradient>
        <linearGradient id="wqxn4yonfA" x1="780.779%" x2="-111.429%" y1="616.764%" y2="-62.074%">
            <stop offset="0%" stop-color="#80ADFF"/>
            <stop offset="46.192%" stop-color="#98BEFF"/>
            <stop offset="100%" stop-color="#A9CBFF"/>
        </linearGradient>
        <linearGradient id="onmhdpohnB" x1="311.369%" x2="-21.674%" y1="520.728%" y2="-13.92%">
            <stop offset="0%" stop-color="#87B2FF"/>
            <stop offset="49.979%" stop-color="#9ABEFF"/>
            <stop offset="100%" stop-color="#ACCDFF"/>
        </linearGradient>
        <linearGradient id="mbutsf7p3C" x1="311.135%" x2="-21.61%" y1="520.728%" y2="-13.92%">
            <stop offset="0%" stop-color="#87B2FF"/>
            <stop offset="49.979%" stop-color="#9ABEFF"/>
            <stop offset="100%" stop-color="#ACCDFF"/>
        </linearGradient>
        <linearGradient id="m3eczpkbmD" x1="311.158%" x2="-21.616%" y1="520.728%" y2="-13.92%">
            <stop offset="0%" stop-color="#87B2FF"/>
            <stop offset="49.979%" stop-color="#9ABEFF"/>
            <stop offset="100%" stop-color="#ACCDFF"/>
        </linearGradient>
        <linearGradient id="cq01qrqtfE" x1="398.385%" x2="-45.536%" y1="227.665%" y2="25.875%">
            <stop offset="0%" stop-color="#87B2FF"/>
            <stop offset="49.979%" stop-color="#9ABEFF"/>
            <stop offset="100%" stop-color="#ACCDFF"/>
        </linearGradient>
        <linearGradient id="u3aub1cs2F" x1="398.385%" x2="-45.536%" y1="227.744%" y2="25.864%">
            <stop offset="0%" stop-color="#87B2FF"/>
            <stop offset="49.979%" stop-color="#9ABEFF"/>
            <stop offset="100%" stop-color="#ACCDFF"/>
        </linearGradient>
        <linearGradient id="mt3f1xclaG" x1="311.884%" x2="-21.815%" y1="520.728%" y2="-13.92%">
            <stop offset="0%" stop-color="#87B2FF"/>
            <stop offset="49.979%" stop-color="#9ABEFF"/>
            <stop offset="100%" stop-color="#ACCDFF"/>
        </linearGradient>
        <linearGradient id="t60gkssbpH" x1="330.114%" x2="-26.815%" y1="520.728%" y2="-13.92%">
            <stop offset="0%" stop-color="#87B2FF"/>
            <stop offset="49.979%" stop-color="#9ABEFF"/>
            <stop offset="100%" stop-color="#ACCDFF"/>
        </linearGradient>
        <linearGradient id="ztdruc57kI" x1="398.385%" x2="-45.536%" y1="89.242%" y2="44.671%">
            <stop offset="0%" stop-color="#87B2FF"/>
            <stop offset="49.979%" stop-color="#9ABEFF"/>
            <stop offset="100%" stop-color="#ACCDFF"/>
        </linearGradient>
        <linearGradient id="2yc2v1r9rJ" x1="398.385%" x2="-45.536%" y1="89.227%" y2="44.673%">
            <stop offset="0%" stop-color="#87B2FF"/>
            <stop offset="49.979%" stop-color="#9ABEFF"/>
            <stop offset="100%" stop-color="#ACCDFF"/>
        </linearGradient>
        <linearGradient id="d7lw5hehuK" x1="398.385%" x2="-45.536%" y1="166.487%" y2="34.182%">
            <stop offset="0%" stop-color="#87B2FF"/>
            <stop offset="49.979%" stop-color="#9ABEFF"/>
            <stop offset="100%" stop-color="#ACCDFF"/>
        </linearGradient>
        <path id="cmzhudhmna" d="M0.538 0H318.538V587H0.538z"/>
    </defs>
    <g fill="none" fill-rule="evenodd" opacity=".3">
        <g>
            <g>
                <g transform="translate(-52.000000, -3594.000000) translate(52.000000, 3594.000000) translate(0.461818, 0.000000)">
                    <mask id="cih8vnm30c" fill="#fff">
                        <use xlink:href="#cmzhudhmna"/>
                    </mask>
                    <use fill="#D8D8D8" fill-opacity="0" xlink:href="#cmzhudhmna"/>
                    <path fill="url(#02nu8b5kpb)" fill-rule="nonzero" d="M30.735 408.804h-.084l-37.979-22.002V342.81h.084l38.035-21.947h.084l38.035 21.947v43.99h-.084l-38.09 22.003zm-37.77-22.184l37.77 21.793 37.77-21.793v-43.613L30.734 321.2l-37.77 21.807v43.613z" mask="url(#cih8vnm30c)"/>
                    <path fill="url(#02nu8b5kpb)" fill-rule="nonzero" d="M106.651 408.804h-.084l-38.035-21.946V342.81h.084l38.035-21.947h.084l38.035 21.947v43.99h-.084l-38.035 22.003zM68.882 386.62l37.77 21.793 37.769-21.793v-43.613L106.65 321.2l-37.769 21.807v43.613z" mask="url(#cih8vnm30c)"/>
                    <path fill="url(#umz35f8ked)" fill-rule="nonzero" d="M-7.216 474.49H-7.3l-38.049-21.947v-44.032h.084l38.05-21.947h.069l38.049 21.947v43.99h-.084L-7.216 474.49zm-37.77-22.184l37.77 21.806 37.77-21.806v-43.6L-7.217 386.9l-37.77 21.806v43.6z" mask="url(#cih8vnm30c)"/>
                    <path fill="url(#umz35f8ked)" fill-rule="nonzero" d="M68.686 474.49l-38.049-21.947v-44.032h.084l38.035-21.947h.084l38.05 21.947v43.99h-.085L68.686 474.49zm-37.769-22.184l37.77 21.806 37.769-21.806v-43.6L68.686 386.9l-37.769 21.806v43.6z" mask="url(#cih8vnm30c)"/>
                    <path fill="url(#55fx71g5de)" fill-rule="nonzero" d="M30.735 540.19h-.084L-7.328 518.2v-43.99h.084l38.035-21.946h.084L68.91 474.21v43.99h-.084l-38.09 21.99zm-37.77-22.185l37.77 21.807 37.77-21.807v-43.6L30.734 452.6l-37.77 21.807v43.6z" mask="url(#cih8vnm30c)"/>
                    <path fill="url(#55fx71g5de)" fill-rule="nonzero" d="M106.651 540.19h-.084l-38.035-21.947V474.21h.084l38.035-21.946h.084l38.035 21.946v43.99h-.084l-38.035 21.99zm-37.769-22.185l37.77 21.807 37.769-21.807v-43.6L106.65 452.6l-37.769 21.807v43.6z" mask="url(#cih8vnm30c)"/>
                    <path fill="url(#sl6omrfd5f)" fill-rule="nonzero" d="M-45.013 552.742L-45.013 540.092 -7.216 518.299 30.567 540.092 30.567 552.742 30.903 552.742 30.903 539.91 -7.146 517.963 -7.216 517.907 -45.265 539.854 -45.349 539.91 -45.349 552.742z" mask="url(#cih8vnm30c)"/>
                    <path fill="url(#sl6omrfd5f)" fill-rule="nonzero" d="M30.903 552.742L30.903 540.092 68.686 518.299 106.484 540.092 106.484 552.742 106.819 552.742 106.819 539.91 68.77 517.963 68.686 517.907 30.651 539.854 30.567 539.91 30.567 552.742z" mask="url(#cih8vnm30c)"/>
                    <path fill="url(#sl6omrfd5f)" fill-rule="nonzero" d="M106.819 552.742L106.819 540.092 144.602 518.299 182.4 540.092 182.4 552.742 182.735 552.742 182.735 539.91 144.686 517.963 144.602 517.907 106.567 539.854 106.484 539.91 106.484 552.742z" mask="url(#cih8vnm30c)"/>
                    <path fill="url(#lxr4huc68g)" fill-rule="nonzero" d="M-34.158 246.149L-84.517 217.1v-58.067L-34.158 130l50.359 29.034V217.1l-50.359 29.048zm-48.61-30.027l48.61 28.042 48.61-28.042v-56.096l-48.61-28.041-48.61 28.041v56.096z" mask="url(#cih8vnm30c)"/>
                    <path fill="url(#hifg5evyyh)" fill-rule="nonzero" d="M15.306 331.768l-50.36-29.034v-58.11l50.36-29.033 50.359 29.034v58.081l-50.36 29.062zm-48.61-30.026l48.61 28.04 48.61-28.04v-56.097l-48.61-28.04-48.61 28.04v56.097z" mask="url(#cih8vnm30c)"/>
                    <path fill="url(#lxr4huc68g)" fill-rule="nonzero" d="M-34.158 417.387l-50.359-29.034v-58.081l50.359-29.034 50.359 29.034v58.081l-50.359 29.034zm-48.61-30.026l48.61 28.041 48.61-28.041v-56.069l-48.61-28.069-48.61 28.07v56.068z" mask="url(#cih8vnm30c)"/>
                    <path fill="url(#lxr4huc68g)" fill-rule="nonzero" d="M15.306 503.006l-50.36-29.033v-58.068l50.36-29.047 50.359 29.047v58.068l-50.36 29.033zm-48.61-30.026l48.61 28.041 48.61-28.041v-56.096l-48.61-28.041-48.61 28.04v56.097z" mask="url(#cih8vnm30c)"/>
                    <path fill="url(#036s1a2bji)" fill-rule="nonzero" d="M-82.768 552.742L-82.768 502.517 -34.158 474.462 14.452 502.517 14.452 552.742 16.173 552.742 16.173 501.524 -34.158 472.477 -84.489 501.524 -84.489 552.742z" mask="url(#cih8vnm30c)"/>
                    <path fill="url(#if7jfj3omj)" fill-rule="nonzero" d="M16.173 552.742L16.173 502.517 64.783 474.462 113.38 502.517 113.38 552.742 115.1 552.742 115.1 501.524 64.783 472.477 14.452 501.524 14.452 552.742z" mask="url(#cih8vnm30c)"/>
                    <path fill="url(#036s1a2bji)" fill-rule="nonzero" d="M115.1 552.742L115.1 502.517 163.711 474.462 212.321 502.517 212.321 552.742 214.042 552.742 214.042 501.524 163.711 472.477 113.38 501.524 113.38 552.742z" mask="url(#cih8vnm30c)"/>
                    <path fill="url(#oibbjfsmvk)" fill-rule="nonzero" d="M32.694 321.018c.005-.793-.468-1.51-1.2-1.818-.731-.307-1.576-.143-2.139.415-.563.559-.733 1.402-.43 2.135.302.733 1.017 1.211 1.81 1.211 1.076 0 1.95-.867 1.959-1.943z" mask="url(#cih8vnm30c)"/>
                    <ellipse cx="68.686" cy="342.909" fill="url(#ptcnkwbonl)" fill-rule="nonzero" mask="url(#cih8vnm30c)" rx="3.777" ry="3.774"/>
                    <path fill="url(#fxrl677i8m)" fill-rule="nonzero" d="M110.302 321.018c0-2.015-1.634-3.648-3.65-3.648-2.017 0-3.652 1.633-3.652 3.648s1.635 3.649 3.651 3.649c2.017 0 3.651-1.634 3.651-3.649z" mask="url(#cih8vnm30c)"/>
                    <ellipse cx="144.602" cy="342.909" fill="url(#yyitgtf2xn)" fill-rule="nonzero" mask="url(#cih8vnm30c)" rx="4.267" ry="4.263"/>
                    <path fill="url(#9fq0jgql0o)" fill-rule="nonzero" d="M27.728 408.608c0 1.66 1.346 3.006 3.007 3.006s3.008-1.346 3.008-3.006c0-1.66-1.347-3.005-3.008-3.005-1.66 0-3.007 1.346-3.007 3.005z" mask="url(#cih8vnm30c)"/>
                    <ellipse cx="144.602" cy="386.704" fill="url(#ved8rpd3mp)" fill-rule="nonzero" mask="url(#cih8vnm30c)" rx="4.672" ry="4.669"/>
                    <ellipse cx="68.686" cy="386.704" fill="url(#pglc1i5e4q)" fill-rule="nonzero" mask="url(#cih8vnm30c)" rx="4.924" ry="4.92"/>
                    <path fill="url(#cy5z1tcl4r)" fill-rule="nonzero" d="M104.847 408.608c0 .996.808 1.804 1.804 1.804.997 0 1.805-.808 1.805-1.804s-.808-1.803-1.805-1.803c-.996 0-1.804.807-1.804 1.803z" mask="url(#cih8vnm30c)"/>
                    <ellipse cx="144.602" cy="474.308" fill="url(#veghgqi89s)" fill-rule="nonzero" mask="url(#cih8vnm30c)" rx="3.623" ry="3.62"/>
                    <path fill="url(#yjcda19kft)" fill-rule="nonzero" d="M106.651 446.868c-3.09 0-5.595 2.503-5.595 5.591s2.505 5.592 5.595 5.592 5.596-2.504 5.596-5.592c0-3.088-2.505-5.591-5.596-5.591z" mask="url(#cih8vnm30c)"/>
                    <path fill="url(#bzjm7zfmdu)" fill-rule="nonzero" d="M30.735 456.555c2.318 0 4.197-1.877 4.197-4.193 0-2.317-1.88-4.194-4.197-4.194-2.318 0-4.196 1.877-4.196 4.194 0 2.316 1.878 4.193 4.196 4.193z" mask="url(#cih8vnm30c)"/>
                    <path fill="url(#7o40bf07kv)" fill-rule="nonzero" d="M73.442 474.308c.006-1.924-1.15-3.66-2.926-4.4-1.777-.74-3.825-.338-5.188 1.02-1.363 1.359-1.772 3.404-1.037 5.182.735 1.777 2.47 2.937 4.395 2.937 2.622 0 4.749-2.12 4.756-4.739z" mask="url(#cih8vnm30c)"/>
                    <path fill="url(#oa4wpmexgw)" fill-rule="nonzero" d="M106.651 543.768c2.063 0 3.735-1.671 3.735-3.732 0-2.062-1.672-3.733-3.735-3.733-2.062 0-3.735 1.671-3.735 3.733.008 2.058 1.676 3.724 3.735 3.732z" mask="url(#cih8vnm30c)"/>
                    <ellipse cx="144.602" cy="518.103" fill="url(#iv0lcxz6kx)" fill-rule="nonzero" mask="url(#cih8vnm30c)" rx="3.945" ry="3.942"/>
                    <path fill="url(#hbbbzayhwy)" fill-rule="nonzero" d="M30.735 535.087c-1.991 0-3.787 1.199-4.549 3.038-.762 1.838-.34 3.955 1.067 5.362 1.409 1.407 3.527 1.828 5.366 1.067 1.84-.762 3.04-2.556 3.04-4.546 0-2.718-2.204-4.92-4.924-4.92z" mask="url(#cih8vnm30c)"/>
                    <ellipse cx="68.686" cy="518.103" fill="url(#tw3o791s1z)" fill-rule="nonzero" mask="url(#cih8vnm30c)" rx="2.196" ry="2.195"/>
                    <ellipse cx="182.568" cy="540.008" fill="url(#wqxn4yonfA)" fill-rule="nonzero" mask="url(#cih8vnm30c)" rx="2.91" ry="2.908"/>
                    <path fill="url(#onmhdpohnB)" fill-rule="nonzero" d="M-25.01 473.23l-51.452-29.67v-59.364l51.452-29.716h.115l51.29 29.601v59.48h-.115l-51.29 29.67zm-50.969-29.923l50.969 29.394 50.945-29.394v-58.903l-50.945-29.349-51.015 29.349.046 58.903z" mask="url(#cih8vnm30c)"/>
                    <path fill="url(#mbutsf7p3C)" fill-rule="nonzero" d="M77.294 473.23h-.115l-51.29-29.67v-59.364l51.405-29.716h.115l51.29 29.601v59.48h-.114l-51.29 29.67zM26.35 443.308l50.945 29.394 50.968-29.394v-58.903l-50.968-29.418-50.945 29.418v58.903z" mask="url(#cih8vnm30c)"/>
                    <path fill="url(#m3eczpkbmD)" fill-rule="nonzero" d="M26.119 561.85h-.115l-51.29-29.67v-59.34h.114l51.29-29.602L77.41 472.84v59.341l-51.29 29.67zm-50.945-29.923l50.945 29.417 50.968-29.417v-58.834l-50.968-29.418-50.945 29.418v58.834z" mask="url(#cih8vnm30c)"/>
                    <path fill="url(#cq01qrqtfE)" fill-rule="nonzero" d="M-76.025 594.974L-76.025 561.736 -25.056 532.318 25.912 561.736 25.912 594.974 26.349 594.974 26.349 561.483 -24.941 531.858 -25.056 531.812 -76.347 561.413 -76.462 561.483 -76.462 594.974z" mask="url(#cih8vnm30c)"/>
                    <path fill="url(#u3aub1cs2F)" fill-rule="nonzero" d="M26.349 594.974L26.349 561.736 77.294 532.318 128.262 561.736 128.262 594.974 128.7 594.974 128.7 561.483 77.409 531.858 77.294 531.812 26.004 561.413 25.912 561.483 25.912 594.974z" mask="url(#cih8vnm30c)"/>
                    <path fill="url(#mt3f1xclaG)" fill-rule="nonzero" d="M-45.867 369.304l-67.843-39.131V251.91l67.843-39.13 67.865 39.13v78.262l-67.865 39.13zm-65.54-40.512l65.54 37.842 65.54-37.842V253.2l-65.54-37.91-65.54 37.91v75.592z" mask="url(#cih8vnm30c)"/>
                    <path fill="url(#t60gkssbpH)" fill-rule="nonzero" d="M-50.494 594.974L-111.408 559.825 -111.408 484.141 -45.867 446.3 19.673 484.141 19.673 559.825 -41.217 594.974 -36.59 594.974 21.998 561.16 21.998 482.806 -45.867 443.629 -113.71 482.806 -113.71 561.16 -55.122 594.974z" mask="url(#cih8vnm30c)"/>
                    <path fill="url(#ztdruc57kI)" fill-rule="nonzero" d="M-36.59 594.974L20.847 561.828 78.284 594.974 82.911 594.974 20.847 559.135 -41.217 594.974z" mask="url(#cih8vnm30c)"/>
                    <path fill="url(#2yc2v1r9rJ)" fill-rule="nonzero" d="M96.816 594.974L154.253 561.828 211.667 594.974 216.317 594.974 154.253 559.135 92.166 594.974z" mask="url(#cih8vnm30c)"/>
                    <path fill="url(#55fx71g5de)" fill-rule="nonzero" d="M30.735 627.736h-.084l-37.979-21.988v-43.99h.084l38.035-21.947h.084l38.035 21.946v43.99h-.084l-38.09 21.99zm-37.77-22.184l37.77 21.807 37.77-21.807v-43.6l-37.77-21.806-37.77 21.807v43.6z" mask="url(#cih8vnm30c)" transform="translate(30.791115, 583.773482) scale(1, -1) translate(-30.791115, -583.773482)"/>
                    <path fill="url(#55fx71g5de)" fill-rule="nonzero" d="M106.651 627.736h-.084L68.532 605.79v-44.033h.084l38.035-21.946h.084l38.035 21.946v43.99h-.084l-38.035 21.99zm-37.769-22.184l37.77 21.807 37.769-21.807v-43.6l-37.77-21.806-37.769 21.807v43.6z" mask="url(#cih8vnm30c)" transform="translate(106.651367, 583.773482) scale(1, -1) translate(-106.651367, -583.773482)"/>
                    <path fill="url(#sl6omrfd5f)" fill-rule="nonzero" d="M-45.013 562.093L-45.013 549.442 -7.216 527.649 30.567 549.442 30.567 562.093 30.903 562.093 30.903 549.26 -7.146 527.314 -7.216 527.258 -45.265 549.204 -45.349 549.26 -45.349 562.093z" mask="url(#cih8vnm30c)" transform="translate(-7.222943, 544.675212) scale(1, -1) translate(7.222943, -544.675212)"/>
                    <path fill="url(#sl6omrfd5f)" fill-rule="nonzero" d="M30.903 562.093L30.903 549.442 68.686 527.649 106.484 549.442 106.484 562.093 106.819 562.093 106.819 549.26 68.77 527.314 68.686 527.258 30.651 549.204 30.567 549.26 30.567 562.093z" mask="url(#cih8vnm30c)" transform="translate(68.693264, 544.675212) scale(1, -1) translate(-68.693264, -544.675212)"/>
                    <path fill="url(#sl6omrfd5f)" fill-rule="nonzero" d="M106.819 562.093L106.819 549.442 144.602 527.649 182.4 549.442 182.4 562.093 182.735 562.093 182.735 549.26 144.686 527.314 144.602 527.258 106.567 549.204 106.484 549.26 106.484 562.093z" mask="url(#cih8vnm30c)" transform="translate(144.609471, 544.675212) scale(1, -1) translate(-144.609471, -544.675212)"/>
                    <path fill="url(#lxr4huc68g)" fill-rule="nonzero" d="M15.306 693.142l-50.36-29.033V606.04l50.36-29.047 50.359 29.047v58.068l-50.36 29.033zm-48.61-30.026l48.61 28.041 48.61-28.04V607.02l-48.61-28.041-48.61 28.041v56.096z" mask="url(#cih8vnm30c)" transform="translate(15.305719, 635.068119) scale(1, -1) translate(-15.305719, -635.068119)"/>
                    <path fill="url(#036s1a2bji)" fill-rule="nonzero" d="M-82.768 607.523L-82.768 557.298 -34.158 529.243 14.452 557.298 14.452 607.523 16.173 607.523 16.173 556.305 -34.158 527.258 -84.489 556.305 -84.489 607.523z" mask="url(#cih8vnm30c)" transform="translate(-34.158019, 567.390510) scale(1, -1) translate(34.158019, -567.390510)"/>
                    <path fill="url(#if7jfj3omj)" fill-rule="nonzero" d="M16.173 607.523L16.173 557.298 64.783 529.243 113.38 557.298 113.38 607.523 115.1 607.523 115.1 556.305 64.783 527.258 14.452 556.305 14.452 607.523z" mask="url(#cih8vnm30c)" transform="translate(64.776452, 567.390510) scale(1, -1) translate(-64.776452, -567.390510)"/>
                    <path fill="url(#036s1a2bji)" fill-rule="nonzero" d="M115.1 607.523L115.1 557.298 163.711 529.243 212.321 557.298 212.321 607.523 214.042 607.523 214.042 556.305 163.711 527.258 113.38 556.305 113.38 607.523z" mask="url(#cih8vnm30c)" transform="translate(163.710923, 567.390510) scale(1, -1) translate(-163.710923, -567.390510)"/>
                    <path fill="url(#oa4wpmexgw)" fill-rule="nonzero" d="M106.651 543.697c2.063 0 3.735-1.671 3.735-3.733 0-2.06-1.672-3.732-3.735-3.732-2.062 0-3.735 1.671-3.735 3.732.008 2.059 1.676 3.725 3.735 3.733z" mask="url(#cih8vnm30c)" transform="translate(106.651367, 539.964408) scale(1, -1) translate(-106.651367, -539.964408)"/>
                    <ellipse cx="144.602" cy="561.897" fill="url(#iv0lcxz6kx)" fill-rule="nonzero" mask="url(#cih8vnm30c)" rx="3.945" ry="3.942" transform="translate(144.602477, 561.896902) scale(1, -1) translate(-144.602477, -561.896902)"/>
                    <path fill="url(#hbbbzayhwy)" fill-rule="nonzero" d="M30.735 535.072c-1.991 0-3.787 1.199-4.549 3.037-.762 1.839-.34 3.955 1.067 5.363 1.409 1.407 3.527 1.828 5.366 1.066 1.84-.761 3.04-2.556 3.04-4.546 0-2.717-2.204-4.92-4.924-4.92z" mask="url(#cih8vnm30c)" transform="translate(30.735088, 539.992294) scale(1, -1) translate(-30.735088, -539.992294)"/>
                    <ellipse cx="68.686" cy="561.897" fill="url(#tw3o791s1z)" fill-rule="nonzero" mask="url(#cih8vnm30c)" rx="2.196" ry="2.195" transform="translate(68.686269, 561.896902) scale(1, -1) translate(-68.686269, -561.896902)"/>
                    <ellipse cx="182.568" cy="539.992" fill="url(#wqxn4yonfA)" fill-rule="nonzero" mask="url(#cih8vnm30c)" rx="2.91" ry="2.908" transform="translate(182.567574, 539.992366) scale(1, -1) translate(-182.567574, -539.992366)"/>
                    <path fill="url(#m3eczpkbmD)" fill-rule="nonzero" d="M26.119 636.762h-.115l-51.29-29.67V547.75h.114l51.29-29.602 51.291 29.602v59.34l-51.29 29.67zm-50.945-29.924l50.945 29.417 50.968-29.417v-58.834l-50.968-29.417-50.945 29.417v58.834z" mask="url(#cih8vnm30c)" transform="translate(26.061302, 577.455545) scale(1, -1) translate(-26.061302, -577.455545)"/>
                    <path fill="url(#cq01qrqtfE)" fill-rule="nonzero" d="M-76.025 548.188L-76.025 514.95 -25.056 485.532 25.912 514.95 25.912 548.188 26.349 548.188 26.349 514.696 -24.941 485.072 -25.056 485.026 -76.347 514.627 -76.462 514.696 -76.462 548.188z" mask="url(#cih8vnm30c)" transform="translate(-25.056458, 516.606982) scale(1, -1) translate(25.056458, -516.606982)"/>
                    <path fill="url(#u3aub1cs2F)" fill-rule="nonzero" d="M26.349 548.188L26.349 514.95 77.294 485.532 128.262 514.95 128.262 548.188 128.7 548.188 128.7 514.696 77.409 485.072 77.294 485.026 26.004 514.627 25.912 514.696 25.912 548.188z" mask="url(#cih8vnm30c)" transform="translate(77.305677, 516.606982) scale(1, -1) translate(-77.305677, -516.606982)"/>
                    <path fill="url(#t60gkssbpH)" fill-rule="nonzero" d="M-50.494 636.371L-111.408 601.222 -111.408 525.538 -45.867 487.696 19.673 525.538 19.673 601.222 -41.217 636.371 -36.59 636.371 21.998 602.557 21.998 524.203 -45.867 485.026 -113.71 524.203 -113.71 602.557 -55.122 636.371z" mask="url(#cih8vnm30c)" transform="translate(-45.855781, 560.698309) scale(1, -1) translate(45.855781, -560.698309)"/>
                    <path fill="url(#ztdruc57kI)" fill-rule="nonzero" d="M-36.59 520.865L20.847 487.719 78.284 520.865 82.911 520.865 20.847 485.026 -41.217 520.865z" mask="url(#cih8vnm30c)" transform="translate(20.847083, 502.945691) scale(1, -1) translate(-20.847083, -502.945691)"/>
                    <path fill="url(#2yc2v1r9rJ)" fill-rule="nonzero" d="M96.816 520.865L154.253 487.719 211.667 520.865 216.317 520.865 154.253 485.026 92.166 520.865z" mask="url(#cih8vnm30c)" transform="translate(154.241302, 502.945691) scale(1, -1) translate(-154.241302, -502.945691)"/>
                    <path fill="url(#d7lw5hehuK)" fill-rule="nonzero" d="M312.935 448.197L317.563 448.197" mask="url(#cih8vnm30c)" transform="translate(315.249010, 448.196945) scale(1, -1) translate(-315.249010, -448.196945)"/>
                </g>
            </g>
        </g>
    </g>
</svg>
