<svg xmlns="http://www.w3.org/2000/svg" width="40" height="40" viewBox="0 0 40 40">
    <g fill="none" fill-rule="evenodd">
        <g>
            <g>
                <g>
                    <g>
                        <g>
                            <path d="M0 0H40V40H0z" transform="translate(-350 -985) translate(210 866) translate(0 119) translate(140)"/>
                            <path d="M0 0H40V40H0z" transform="translate(-350 -985) translate(210 866) translate(0 119) translate(140)"/>
                        </g>
                        <g fill-rule="nonzero" stroke="#21A0F5" stroke-width="1.667">
                            <path d="M20.283 19.517l2.334-4.034c.15-.25.083-.566-.134-.75L20.017 12.8c.05-.367.083-.75.083-1.133 0-.384-.033-.767-.083-1.15l2.466-1.934c.217-.183.284-.5.134-.75L20.283 3.8c-.15-.25-.45-.35-.716-.25l-2.9 1.167c-.6-.467-1.25-.85-1.967-1.15L14.267.483c-.05-.266-.3-.483-.584-.483H9.017c-.284 0-.534.217-.584.5L8 3.583c-.7.3-1.367.684-1.967 1.15l-2.9-1.166c-.266-.1-.566 0-.716.25L.083 7.85c-.15.25-.083.567.134.75l2.466 1.933c-.05.367-.083.75-.083 1.134 0 .383.033.766.083 1.15L.217 14.75c-.217.183-.284.5-.134.75l2.334 4.033c.15.25.45.35.716.25l2.9-1.166c.6.466 1.25.85 1.967 1.15l.433 3.083c.05.267.3.483.584.483h4.666c.284 0 .534-.216.584-.5l.433-3.083c.7-.3 1.367-.683 1.967-1.15l2.9 1.167c.266.1.566 0 .716-.25zM11.35 15c-1.833 0-3.333-1.5-3.333-3.333 0-1.834 1.5-3.334 3.333-3.334 1.833 0 3.333 1.5 3.333 3.334 0 1.833-1.5 3.333-3.333 3.333zM33.2 27.783l-1.6-1.233c.033-.233.067-.483.067-.733s-.017-.5-.067-.734l1.583-1.233c.134-.117.184-.317.084-.483l-1.5-2.584c-.084-.166-.284-.216-.467-.166l-1.85.75c-.383-.3-.8-.55-1.267-.734l-.283-1.966c-.017-.2-.183-.334-.35-.334h-2.983c-.184 0-.35.134-.367.317l-.283 1.967c-.45.2-.884.433-1.267.733l-1.85-.75c-.167-.067-.367 0-.467.167l-1.5 2.583c-.083.167-.066.367.084.483l1.583 1.234c-.033.233-.05.483-.05.733s.017.5.05.733l-1.583 1.234c-.134.116-.184.316-.084.483l1.5 2.583c.084.167.284.217.467.167l1.85-.75c.383.3.8.55 1.267.733l.283 1.967c.033.183.183.317.367.317h2.983c.183 0 .35-.134.367-.317l.283-1.967c.45-.2.883-.433 1.25-.733l1.867.75c.166.067.366 0 .466-.167l1.5-2.583c.1-.15.05-.35-.083-.467zm-7.15.267c-1.233 0-2.25-1-2.25-2.25s1-2.25 2.25-2.25 2.25 1 2.25 2.25-1.017 2.25-2.25 2.25z" transform="translate(-350 -985) translate(210 866) translate(0 119) translate(140) translate(3.333 3.333)"/>
                        </g>
                    </g>
                </g>
            </g>
        </g>
    </g>
</svg>
