<svg xmlns="http://www.w3.org/2000/svg" width="40" height="40" viewBox="0 0 40 40">
    <g fill="none" fill-rule="evenodd">
        <g>
            <g>
                <g>
                    <g>
                        <path d="M0 0L40 0 40 40 0 40z" transform="translate(-700 -985) translate(210 866) translate(350 119) translate(140)"/>
                        <path fill-rule="nonzero" stroke="#21A0F5" stroke-width="1.667" d="M32.5 13.333h-4.167V10c0-1.833-1.5-3.333-3.333-3.333H5c-1.833 0-3.333 1.5-3.333 3.333v15c0 1.833 1.5 3.333 3.333 3.333 0 2.767 2.233 5 5 5s5-2.233 5-5h10c0 2.767 2.233 5 5 5s5-2.233 5-5h1.667c.916 0 1.666-.75 1.666-1.666v-5.55c0-.717-.233-1.417-.666-2L33.833 14c-.316-.417-.816-.667-1.333-.667zM10 30c-.917 0-1.667-.75-1.667-1.667 0-.916.75-1.666 1.667-1.666s1.667.75 1.667 1.666c0 .917-.75 1.667-1.667 1.667zm23-13.528l1.133 1.445c.44.56.341 1.37-.219 1.809-.226.177-.506.274-.795.274h-4.786 0v-2.5c0-.92.747-1.667 1.667-1.667h1.689c.512 0 .996.236 1.311.639zM30 30c-.917 0-1.667-.75-1.667-1.667 0-.916.75-1.666 1.667-1.666s1.667.75 1.667 1.666c0 .917-.75 1.667-1.667 1.667z" transform="translate(-700 -985) translate(210 866) translate(350 119) translate(140)"/>
                    </g>
                </g>
            </g>
        </g>
    </g>
</svg>
