<svg xmlns="http://www.w3.org/2000/svg" width="40" height="40" viewBox="0 0 40 40">
    <g fill="none" fill-rule="evenodd">
        <g>
            <g>
                <g>
                    <g>
                        <path d="M0 0L40 0 40 40 0 40z" transform="translate(-1050 -985) translate(210 866) translate(700 119) translate(140)"/>
                        <path fill-rule="nonzero" stroke="#21A0F5" stroke-width="1.667" d="M8.333 8.333h23.334c.916 0 1.666-.75 1.666-1.666 0-.917-.75-1.667-1.666-1.667H8.333c-.916 0-1.666.75-1.666 1.667 0 .916.75 1.666 1.666 1.666zM33.6 13c-.15-.767-.833-1.333-1.633-1.333H8.033c-.8 0-1.483.566-1.633 1.333l-1.667 8.333c-.2 1.034.584 2 1.634 2h.3v8.334c0 .916.75 1.666 1.666 1.666h13.334c.916 0 1.666-.75 1.666-1.666v-8.334H30v8.334c0 .916.75 1.666 1.667 1.666.916 0 1.666-.75 1.666-1.666v-8.334h.3c1.05 0 1.834-.966 1.634-2L33.6 13zM20 30H10v-6.667h10V30z" transform="translate(-1050 -985) translate(210 866) translate(700 119) translate(140)"/>
                    </g>
                </g>
            </g>
        </g>
    </g>
</svg>
