<svg xmlns="http://www.w3.org/2000/svg" width="40" height="40" viewBox="0 0 40 40">
    <g fill="none" fill-rule="evenodd">
        <g>
            <g>
                <g>
                    <g>
                        <g fill="#21A0F5" fill-rule="nonzero">
                            <path d="M9.774 0c2.596 0 4.893.802 6.624 2.398.92.86 1.657 1.898 2.168 3.05.484-1.166 1.211-2.215 2.134-3.075C22.396.79 24.706 0 27.44 0c2.645.022 5.158 1.157 6.924 3.125 1.838 2.05 2.847 4.71 2.832 7.464 0 2.234-1.294 4.783-3.213 7.367-.047.1-.115.19-.198.264-3.006 4.016-7.487 8.09-10.948 11.266-1.438 1.306-2.697 2.448-3.566 3.326-.368.364-.96.364-1.328 0-.95-.966-2.297-2.184-3.782-3.546C9.548 25.02 3.427 19.41 1.029 14.44c-.067-.096-.118-.202-.151-.315C.339 13.022.04 11.816 0 10.59c-.023-2.755.988-5.418 2.832-7.464C4.602 1.15 7.122.015 9.774 0zm5.35 3.776c-1.372-1.259-3.216-1.888-5.35-1.888-2.126.012-4.146.927-5.557 2.518-1.52 1.699-2.35 3.904-2.329 6.183.018.817.193 1.623.516 2.373h7.773l2.096-5.17c.198-.48.746-.709 1.227-.513.255.098.453.304.541.563l4.091 11.143 2.637-6.023c.207-.472.755-.69 1.23-.491.231.102.412.293.501.529l1.52 3.587h8.707c1.574-2.171 2.622-4.251 2.622-5.998.017-2.285-.827-4.492-2.364-6.183-1.407-1.588-3.423-2.503-5.544-2.518-2.266 0-4.13.607-5.482 1.863-1.306 1.205-2.159 3.024-2.423 5.447-.077.45-.463.78-.918.786-.456.006-.85-.314-.939-.76-.315-2.411-1.259-4.217-2.546-5.435l-.01-.013zm6.445 24.32c3.011-2.751 6.812-6.225 9.66-9.627H23.4c-.378-.002-.718-.228-.865-.576l-.944-2.184-2.656 6.124c-.093.257-.296.46-.554.55-.488.174-1.024-.077-1.202-.563l-4.066-11.067-1.42 3.461c-.131.373-.482.625-.877.63H3.339c2.558 4.28 7.955 9.236 12.106 13.037 1.18 1.092 2.26 2.083 3.162 2.961.828-.802 1.844-1.73 2.962-2.747zM14.054 7.841c.065.215.056.445-.025.655" transform="translate(-525 -1171) translate(210 866) translate(175 305) translate(140) translate(1.25 3.75)"/>
                        </g>
                    </g>
                </g>
            </g>
        </g>
    </g>
</svg>
