<svg xmlns="http://www.w3.org/2000/svg" width="40" height="40" viewBox="0 0 40 40">
    <g fill="none" fill-rule="evenodd">
        <g>
            <g>
                <g>
                    <g>
                        <g stroke="#21A0F5" stroke-width="2">
                            <g transform="translate(-875 -1171) translate(210 866) translate(525 305) translate(140) translate(2 2.4) translate(6.701)">
                                <path d="M11.488 1C8.592 1 5.97 2.174 4.072 4.072 2.174 5.97 1 8.592 1 11.488 1 15.46 4.57 21.904 11.487 30.86c6.919-8.955 10.49-15.4 10.49-19.372 0-2.896-1.175-5.518-3.073-7.416C17.006 2.174 14.384 1 11.488 1z"/>
                                <circle cx="11.488" cy="10.531" r="2.829"/>
                            </g>
                            <path stroke-linecap="round" d="M11.446 28.975c-.627.05-1.237.106-1.827.168-.347.037-.688.075-1.021.116C3.436 29.893 0 31.022 0 32.31c0 1.983 8.144 3.59 18.19 3.59 10.045 0 18.189-1.607 18.189-3.59 0-1.288-3.44-2.418-8.606-3.052-.687-.084-1.404-.16-2.148-.225-.227-.02-.456-.04-.687-.058" transform="translate(-875 -1171) translate(210 866) translate(525 305) translate(140) translate(2 2.4)"/>
                        </g>
                    </g>
                </g>
            </g>
        </g>
    </g>
</svg>
